<svg width="36" height="36" viewBox="0 0 36 36" fill="none" xmlns="http://www.w3.org/2000/svg">
<rect width="36" height="36" rx="2" fill="white"/>
<path d="M30.1816 12.414L31 10.2531L30.9645 10.1192L22.8682 12.2939C23.7315 11.0209 23.4349 10 23.4349 10C23.4349 10 20.8494 11.6833 18.8942 11.6393C16.939 11.5952 16.3087 11.0632 13.3106 12.0383C10.3124 13.0126 9.4654 16.0035 8.59613 16.646C7.72685 17.2885 5 19.3814 5 19.3814L5.00589 19.4186L7.46441 18.6206C7.46441 18.6206 6.79004 19.2683 5.3575 21.2366L5.29057 21.1736L5.29311 21.1875C5.29311 21.1875 6.44442 22.9813 7.57451 22.6496C7.68805 22.616 7.81592 22.5607 7.95567 22.4881C8.41067 22.7464 9.00451 23.0003 9.6602 23.0702C9.6602 23.0702 9.21637 22.5442 8.84607 21.9457C8.94601 21.8801 9.04859 21.8118 9.15279 21.7428L9.10444 21.7773L10.0405 22.128L9.93726 21.2306C9.94061 21.2289 9.94315 21.2263 9.9465 21.2245L10.8666 21.5691L10.7522 20.753C10.8671 20.6916 10.9834 20.6332 11.1012 20.5777L12.0602 16.8794L16.0257 14.1216L15.7106 14.9301C14.9066 16.9459 13.397 17.4218 13.397 17.4218L12.7667 17.6653C12.2983 18.2301 12.1008 18.3692 11.94 20.265C12.3178 20.1683 12.6786 20.1449 13.0056 20.2347C14.6999 20.7003 15.287 22.7818 14.8303 23.3579C14.716 23.5021 14.4441 23.7482 14.101 24.0376H13.4131L13.4038 24.6059C13.38 24.6249 13.3564 24.643 13.3334 24.662H12.6336L12.6252 25.2165C12.5634 25.2649 12.5015 25.3115 12.4423 25.3573C11.7849 25.3711 10.9521 24.7864 10.9521 24.7864C10.9521 25.3185 11.3868 26.1372 11.3868 26.1372C11.3868 26.1372 11.4155 26.1234 11.4637 26.0992C11.4214 26.1312 11.3977 26.1485 11.3977 26.1485C11.3977 26.1485 13.1572 27.3446 14.2653 26.9016C15.2505 26.5077 17.8013 24.4573 20.0031 23.4866L26.6659 21.697L27.5444 19.3763L22.4666 20.7399V18.656L28.4247 17.0555L29.3032 14.7348L22.4683 16.571V14.486L30.1816 12.414Z" fill="black"/>
</svg>
