<svg width="36" height="36" viewBox="0 0 36 36" fill="none" xmlns="http://www.w3.org/2000/svg">
<rect width="36" height="36" rx="2" fill="white"/>
<path d="M16.1089 10.1565C16.5026 9.459 14.4855 9.21712 15.8445 9.91012C15.9705 9.95175 15.9424 10.2049 16.1089 10.1565ZM5.10975 4.23112C4.2525 3.11175 6.72075 4.419 5.85113 3.24675C5.11763 2.66287 4.41338 3.90487 5.10975 4.23112ZM6.90525 5.63737C8.1225 5.47537 6.59588 5.11312 6.66113 5.62275L6.90525 5.63737ZM5.94338 5.40675C5.4855 5.58675 6.20438 5.05237 5.94338 5.40675V5.40675ZM7.884 7.54312C8.64 7.56112 7.55888 6.52837 8.45888 6.99525C8.3115 6.51262 7.41038 6.42262 6.96825 6.23025C6.72075 6.67125 7.4745 7.54875 7.88175 7.54312H7.884ZM5.5305 7.44637C6.17738 6.95812 7.7625 7.7355 6.7455 6.9615C6.64763 6.87487 4.51575 7.54875 5.5305 7.44637ZM4.86675 8.71537C5.99963 8.33063 7.54763 7.89862 8.082 8.9055C7.5375 8.25075 7.86263 7.60612 8.37675 8.5635C9.10238 9.53212 9.46575 8.12362 8.99213 7.79737C9.531 8.46675 10.143 8.78175 9.35325 7.839C10.2105 6.80737 7.63425 7.97512 7.04813 7.96275C6.76688 8.08875 4.1355 8.63325 4.86675 8.71537ZM6.975 12.2411C6.59588 12.15 7.25175 11.8991 6.975 12.2411V12.2411ZM6.31463 14.0085C6.11775 14.2245 6.24713 13.6012 6.31463 14.0085V14.0085ZM5.7555 13.725C6.38775 13.6834 6.74775 13.0264 5.63288 13.0646C3.90375 12.8857 7.15725 13.6552 5.41125 13.4359C5.17613 13.59 5.74313 13.7689 5.7555 13.7272V13.725ZM32.7555 30.8756C33.5385 30.8756 35.1281 30.6326 33.4238 30.6326C33.1571 30.6754 31.8656 30.6664 32.7555 30.8756ZM29.0025 28.6718C28.6234 28.7235 29.0869 28.098 29.0025 28.6718V28.6718ZM31.9444 30.6821C31.5169 30.9071 31.9613 30.1826 31.9444 30.6821V30.6821ZM2.98125 12.5606C2.31863 12.3975 3.54263 12.132 2.98125 12.5606V12.5606ZM5.11763 14.0794C4.37175 13.9309 5.46188 13.7137 5.11763 14.0794V14.0794ZM4.39425 13.8769C3.3525 13.3571 5.37413 13.2761 4.39425 13.8769V13.8769ZM11.6415 9.315C11.9689 8.45437 12.915 8.97075 11.7934 9.14175C11.817 9.23288 11.7596 9.58612 11.6415 9.315ZM10.7415 9.32062C10.6639 7.614 12.3143 9.92812 10.7415 9.32062V9.32062ZM7.578 9.80775C8.09775 9.18338 10.5233 9.4095 8.748 9.747C8.27325 9.38812 7.90763 9.95738 7.578 9.80775ZM7.35863 9.954C7.44863 10.2769 7.67025 9.58837 7.35863 9.954V9.954ZM6.50475 10.2983C6.54975 9.72 7.93575 10.6042 6.73425 10.5064L6.50475 10.2983ZM5.87925 10.287C6.14025 10.4917 6.37088 9.92137 5.87925 10.287V10.287ZM5.81288 10.8979C6.15488 9.64125 7.641 11.9306 6.372 11.0632C6.23588 10.9564 6.06263 10.8923 5.87363 10.8923C5.85225 10.8923 5.83088 10.8934 5.8095 10.8945H5.81175L5.81288 10.8979ZM2.30625 12.6832C2.17575 11.9306 2.19375 10.611 3.44813 11.0576C1.77413 11.3895 4.60688 13.1377 4.24913 11.7574C4.95225 11.7911 5.62725 11.3411 5.256 12.024C6.64313 11.8699 7.60388 10.6684 8.94488 10.836C10.1621 10.7347 11.2871 10.4996 12.357 10.1441L12.2546 10.1734C13.1794 10.1059 14.0681 9.11025 13.5619 8.52187C13.3166 8.50725 13.0298 8.49825 12.7406 8.49825C11.6235 8.49825 10.5356 8.6265 9.49163 8.86837L9.58838 8.84925C8.04488 9.16987 6.642 9.77962 5.08275 10.0429C3.564 10.2465 5.38763 10.6054 4.95338 10.6841C4.16025 10.9597 5.89838 11.1454 4.851 11.4345C4.20413 11.3107 3.52913 11.0891 3.807 10.4085C2.35238 10.5952 1.07213 11.2005 2.223 12.6799H2.30738L2.30625 12.6832ZM4.7475 14.3167C4.1715 14.4225 4.82513 13.7824 4.7475 14.3167V14.3167ZM30.3086 30.8385C29.8395 30.9083 30.4943 30.2873 30.3086 30.8385V30.8385ZM27.5333 29.3996C26.9426 29.268 27.9968 28.9732 27.5333 29.3996V29.3996ZM4.56975 15.2167C5.29763 14.931 3.24788 14.6261 4.4235 15.1605L4.56975 15.2167ZM2.85525 14.1919C2.58863 14.2481 2.80575 13.7419 2.85525 14.1919V14.1919ZM2.54588 14.4259C2.34338 14.5687 2.51775 14.0467 2.54588 14.4259V14.4259ZM4.635 15.7815C3.45375 15.6577 4.53713 14.9591 4.635 15.7815V15.7815ZM8.68388 18.7729C8.27663 18.6559 8.85488 18.6154 8.68388 18.7729V18.7729ZM5.02088 16.425C4.85213 16.2889 4.88925 16.596 5.02088 16.425V16.425ZM4.43925 16.1404C3.50663 15.8254 4.45163 15.7894 4.43925 16.1404V16.1404ZM3.42113 15.8839C2.68313 15.7185 3.22763 14.7949 3.42113 15.8839V15.8839ZM7.6905 18.8482C7.245 18.8269 7.70288 18.2756 7.6905 18.8482V18.8482ZM26.9831 30.8655C27.7031 30.7193 29.3423 31.2311 29.6066 30.6743C28.7348 30.6529 26.5838 30.0589 26.4825 30.8149L26.6738 30.8475L26.9831 30.8655ZM7.17525 18.7189C7.00425 18.7886 7.16513 18.5321 7.17525 18.7189V18.7189ZM5.54963 17.9314C5.03325 17.8054 6.111 17.7412 5.54963 17.9314V17.9314ZM18.5254 26.6906C17.9696 26.8313 18.5153 26.127 18.5254 26.6906V26.6906ZM5.89613 18.7312C4.96238 18.4927 6.768 18.3937 5.89613 18.7312V18.7312ZM22.7801 29.5841C22.401 29.556 23.0839 29.3591 22.7801 29.5841V29.5841ZM19.6144 27.5884C19.3939 27.63 19.5581 27.3701 19.6144 27.5884V27.5884ZM19.2296 27.3083C18.6278 27.2992 19.0778 26.9179 19.2296 27.3083V27.3083ZM11.2433 22.2705C10.224 22.0399 11.2433 21.7013 11.2433 22.2705V22.2705ZM10.3208 22.0568C9.94725 21.7429 10.3028 22.0118 10.3208 22.0568V22.0568ZM4.24238 18.3094C4.37175 17.7705 3.04313 15.3472 3.61575 17.0944C3.8205 17.46 3.798 18.1541 4.24238 18.3094ZM7.55438 20.9239C8.28113 21.087 10.4591 22.7149 9.17438 21.0364C8.51625 20.8429 8.91113 19.233 8.2395 19.5176C8.6895 20.2703 8.61075 20.5898 7.6635 20.1161C6.4755 19.5356 6.9975 20.403 7.22813 20.6415C6.91313 20.7146 7.64888 20.9171 7.5555 20.9227L7.55438 20.9239ZM25.7524 32.6385C25.0931 32.5215 26.2946 32.2762 25.7524 32.6385V32.6385ZM23.8118 31.3481C22.9579 31.6474 24.6184 30.6709 23.8118 31.3481V31.3481ZM24.1909 31.5315C25.182 30.8149 23.589 31.3943 23.9828 31.6665L24.1909 31.5315ZM13.0939 24.9457C12.7789 25.0121 12.8903 24.5284 13.0939 24.9457V24.9457ZM12.447 24.5711C12.0375 24.5992 12.4189 24.2336 12.447 24.5711V24.5711ZM22.9489 31.1929C23.724 30.6934 22.7723 30.771 22.8083 31.2379L22.9489 31.1929ZM7.056 21.1703C6.46538 21.1264 7.2855 20.8305 7.056 21.1703V21.1703ZM23.2031 31.5203C22.6969 31.3762 24.0041 30.834 23.2031 31.5203V31.5203ZM21.9859 31.0421C21.3311 30.5921 23.5811 30.0105 21.9859 31.0421V31.0421ZM5.07375 20.4502C4.33463 19.3961 4.61363 18.9202 3.90038 18.0608C3.76538 17.4004 2.6775 15.9052 3.33788 17.4904C3.942 18.4162 4.122 19.8506 5.07375 20.4514V20.4502ZM22.257 31.3346C21.4166 31.3898 23.1244 30.4155 22.257 31.3346V31.3346ZM22.2559 31.6294C21.9184 31.7216 22.2604 31.419 22.2559 31.6294V31.6294ZM20.6246 30.5111C19.8653 30.8036 21.4088 29.853 20.6246 30.5111V30.5111ZM13.4595 26.0831C13.968 26.5331 15.7961 26.415 14.0783 26.1394C13.8229 25.7603 12.4605 25.8525 13.4595 26.0831ZM8.24288 22.9387C7.02788 22.4269 7.90313 22.374 8.24288 22.9387V22.9387ZM7.32713 22.3369C6.34275 21.789 7.1865 21.7845 7.32713 22.3369V22.3369ZM20.952 30.8948C21.4088 30.4515 20.97 31.6024 21.7114 30.7867C21.7181 30.2029 21.6878 29.8586 20.8598 30.5674C20.6325 30.6934 20.5313 31.2323 20.952 30.8948ZM20.0936 30.5336C19.8225 30.8711 20.1218 30.1399 20.0936 30.5336V30.5336ZM11.7428 25.4745C10.7708 24.6926 13.725 26.1124 11.7428 25.4745V25.4745ZM10.1115 24.5374C10.5896 24.8929 11.9115 25.5476 10.7921 24.6724C11.1701 24.2336 10.0699 24.0007 10.4355 23.7083C9.50738 23.1401 9.70425 23.1908 10.3545 23.2076C9.2385 22.7104 10.5143 22.7464 10.4524 22.491C10.0238 22.4066 8.316 21.7316 9.32175 22.5473C8.30138 22.0275 9.07875 22.7407 8.7705 22.6654C7.7265 22.3819 9.69863 23.4596 8.60513 23.193C9.2025 23.6666 10.2161 24.408 8.85825 23.6947C8.67825 23.9524 9.828 24.3416 10.1126 24.5385L10.1115 24.5374ZM13.1918 26.5815C14.0569 26.8065 14.0524 26.4476 13.2694 26.343C12.8475 25.9493 11.5178 25.5341 12.7069 26.2935C12.7868 26.4926 13.0376 26.4893 13.1906 26.5826L13.1918 26.5815ZM11.6314 25.794C11.4514 25.6376 11.6539 25.8919 11.6314 25.794V25.794ZM12.3896 10.8742C12.4178 11.07 12.5213 10.7123 12.3896 10.8742V10.8742ZM11.9363 13.5776C11.6325 13.0432 12.3188 11.2252 12.3941 12.3547C12.0746 13.2334 12.303 13.725 12.5246 12.546C12.9364 11.6179 12.4358 14.3775 11.934 13.5787L11.9363 13.5776ZM11.4953 14.2942C11.421 13.8442 11.7484 14.8624 11.4953 14.2942V14.2942ZM11.7664 15.0109C11.3243 13.9196 12.177 15.5869 11.7664 15.0109V15.0109ZM11.9509 15.4192C11.9475 15.1841 12.0116 15.759 11.9509 15.4192V15.4192ZM8.76938 13.6485C9.0585 13.0387 9.30375 14.328 8.76938 13.6485V13.6485ZM7.64213 12.9769C7.73775 13.2187 7.82325 12.8992 7.64213 12.9769V12.9769ZM12.4605 16.7389C12.6056 17.5162 12.6248 15.4114 12.4605 16.7389V16.7389ZM8.13825 14.2031C8.37563 13.8544 7.506 12.6281 8.26313 13.7632C8.58938 14.0231 9.20813 14.1986 8.66138 14.3077C9.51863 15.066 8.451 14.5125 8.13825 14.2042V14.2031ZM12.708 17.1034C12.7699 15.9367 13.0568 16.407 12.7103 17.2687L12.708 17.1034ZM7.704 14.6081C8.28788 14.4844 10.1194 15.633 8.43525 14.9366C8.24963 14.7285 7.85025 14.8252 7.704 14.6081ZM13.0343 18.2936C13.0478 18.7222 13.2165 17.6445 13.0343 18.2936V18.2936ZM10.6695 16.7771C10.5773 15.6386 10.8765 16.965 10.6695 16.7771V16.7771ZM7.55438 15.1245C6.5745 13.7711 10.404 16.4925 8.18325 15.4676C7.9515 15.4069 7.67138 15.3832 7.55438 15.1245ZM12.9611 18.7897C12.9713 19.152 13.0365 18.4804 12.9611 18.7897V18.7897ZM13.2424 19.0688C13.3099 18.3476 13.3819 19.5604 13.2424 19.0688V19.0688ZM11.6258 18.1125C10.9654 17.7165 11.4525 15.3236 11.6775 16.9594C12.3199 16.7512 11.6426 17.8031 12.1208 17.7941C12.0465 18.459 11.8316 18.6986 11.6291 18.1114L11.6258 18.1125ZM7.254 15.5711C5.72738 14.2132 9.17325 16.2821 7.50263 15.8242L7.254 15.5711ZM8.23388 16.5082C7.77263 15.6409 8.79638 16.8705 8.23388 16.5082V16.5082ZM7.74113 16.3496C7.90313 16.6477 8.046 16.047 7.74113 16.3496V16.3496ZM6.94013 16.371C6.41475 15.8512 6.0345 15.3686 6.96375 16.0481C7.32263 16.0616 6.16838 14.9546 7.04813 15.6971C7.97625 15.8659 7.50825 17.2181 6.94013 16.3721V16.371ZM8.4645 17.5511C8.76825 16.911 8.97863 18.4421 8.4645 17.5511V17.5511ZM7.83113 17.334C7.88738 16.4857 8.154 17.9145 7.83113 17.334V17.334ZM9.24188 18.3049C8.94713 17.8009 8.77275 17.1945 8.77275 16.5476C8.77275 16.5465 8.77275 16.5454 8.77275 16.5442C8.87963 17.0752 9.90338 18.8314 9.2745 17.2721C8.58038 15.9649 10.1036 17.6962 10.2611 18.0225C10.3309 18.3454 9.8325 17.9336 10.1711 18.6941C9.55238 17.8267 9.8055 19.1734 9.24188 18.3049ZM13.8049 21.3491C13.3099 20.2387 14.1559 20.7416 13.914 21.5314L13.8049 21.3491ZM11.1589 20.4998C10.9406 20.1094 11.6134 20.8654 11.1589 20.4998V20.4998ZM14.2403 22.644C14.4293 21.9353 14.463 23.2402 14.2403 22.644V22.644ZM9.8775 20.2792C10.0294 20.8046 10.1858 20.1949 9.8775 20.2792V20.2792ZM15.3596 24.0637C14.8365 23.0513 16.02 24.3506 15.3596 24.0637V24.0637ZM15.813 24.6724C15.7995 24.0142 15.9638 25.1786 15.813 24.6724V24.6724ZM21.0229 28.6313C21.0319 28.8281 21.2828 28.6155 21.0229 28.6313V28.6313ZM16.47 25.7389C16.0538 25.3035 15.9458 24.4879 16.3958 25.1978C16.6264 25.29 17.1338 26.5286 16.47 25.7389ZM17.8684 29.6865C18.9551 29.0374 18.5963 31.2075 19.7111 29.8687C20.8103 29.0677 18.7628 30.8621 20.1184 30.0139C21.0971 29.3569 22.545 30.3233 23.4585 30.6394C24.1166 30.6068 24.7556 31.2086 25.4306 30.843C26.7278 30.492 22.8915 30.3232 23.8984 29.7045C23.7431 29.7394 23.5643 29.7596 23.3809 29.7596C22.4753 29.7596 21.6833 29.2703 21.2546 28.5424L21.2479 28.5311C19.7865 28.2892 18.5456 27.4961 17.7199 26.3779L17.7098 26.3633C17.4398 25.92 18.1035 26.4251 17.4769 25.7029C16.7951 25.0166 16.2135 24.228 15.759 23.364L15.7331 23.3111C15.0908 22.968 15.0165 21.9578 14.9501 23.2774C14.9558 22.4438 14.1728 21.8824 13.9826 22.1164C13.9804 21.3131 14.8196 21.7159 14.2301 21.1219C14.1041 20.2894 13.6879 19.4209 13.5619 18.4826C13.3684 18.0304 13.5338 17.0617 12.897 18.0866C12.6653 19.1689 12.8194 16.7557 13.1805 17.5522C13.6541 16.7366 13.0118 16.8356 12.9836 16.9481C13.293 16.2619 13.1805 15.2887 12.9038 15.66C13.068 14.9332 13.1636 12.9859 12.6574 13.3324C12.9634 12.573 13.239 9.85612 11.907 10.8923C11.2095 10.9204 10.5548 11.0711 9.954 11.322L9.99113 11.3085C11.3771 12.0724 9.8505 11.5841 9.288 11.4626C9.21488 12.168 8.65575 11.8631 7.95825 11.8699C9.07313 12.0071 7.416 13.0084 6.77588 12.6202C5.94675 13.0162 7.4925 14.0074 6.79275 14.3145C6.87713 14.7757 5.52038 14.1457 5.62613 15.2145C4.82063 14.8759 5.517 16.4801 5.91975 15.9367C7.29 16.308 6.88388 17.154 6.91763 17.9572C6.696 18.4252 5.81513 16.857 6.72075 16.929C6.0075 15.7669 5.93213 16.5071 5.337 17.0482C5.19638 17.0876 6.8535 17.8177 5.81513 18.1766C6.72863 18.3172 6.7545 19.1182 6.94013 19.6245C7.488 20.1971 7.3755 18.9922 8.03475 19.6807C7.6185 19.0676 5.832 17.9539 7.26975 18.3116C7.263 17.6929 7.00988 17.1967 7.45088 17.2091C7.88625 16.4194 6.99413 19.1587 7.9785 18.1541C8.24963 18.0349 8.316 17.3621 8.80763 18.2171C9.5175 18.9169 9.063 19.4231 8.06063 18.7841C8.2395 19.3927 9.40163 19.6099 9.18338 20.5627C9.41513 21.3997 9.73913 21.0915 10.0215 21.0431C10.2431 21.8554 10.3691 21.258 10.3804 20.8699C11.3929 21.0881 11.1566 21.6855 11.4739 22.1074C12.1725 22.4224 10.4726 19.9676 11.673 21.3682C12.9353 22.5068 12.1466 22.9849 11.0126 22.8026C11.7293 22.7452 11.9621 23.7724 12.8588 23.7364C13.6766 24.1256 14.229 25.6208 12.8205 24.9975C12.3311 24.5576 10.5998 24.0131 12.015 24.8512C13.4573 25.4419 14.6419 26.0201 15.7838 26.6636L15.615 26.577C16.515 27.2205 16.9054 27.9574 17.2463 28.1036C16.4903 28.4648 14.9648 27.8145 16.0976 27.6143C15.39 27.486 14.5958 27.1294 15.2719 28.008C15.8479 28.4906 17.3104 28.4377 17.5736 28.4929C17.3498 28.9823 16.9695 29.0216 17.5826 29.0599C16.8998 29.4255 17.802 29.4818 17.865 29.6899L17.8684 29.6865ZM13.8251 27.2014C14.9873 27.3499 12.4403 26.4094 13.5709 27.117L13.8251 27.2014ZM16.9256 29.3062C15.9413 29.1094 17.9348 28.9058 16.9256 29.3062V29.3062ZM10.9643 25.5982C9.92363 25.1606 11.6111 25.5285 10.9643 25.5982V25.5982ZM14.4866 27.837C13.7441 27.729 14.571 27.4781 14.4866 27.837V27.837ZM19.638 31.1726C19.3804 31.2784 19.6245 30.8959 19.638 31.1726V31.1726ZM14.9063 28.2701C14.7465 28.0879 14.8298 28.3095 14.9063 28.2701V28.2701ZM7.30463 23.4405C6.35738 22.6901 7.19663 23.0231 7.30463 23.4405V23.4405ZM10.2004 25.3136C9.00788 24.93 11.0723 25.2619 10.2004 25.3136V25.3136ZM12.6439 27.0765C12.1714 27.0653 12.5539 26.8076 12.6439 27.0765V27.0765ZM19.1531 31.0916C18.657 31.4707 19.1925 30.5809 19.1531 31.0916V31.0916ZM10.0575 25.4891C9.684 25.515 9.999 25.2079 10.0575 25.4891V25.4891ZM16.5859 29.6505C15.2156 29.4435 18.1046 29.664 16.5859 29.6505V29.6505ZM13.8116 28.0474C15.4148 28.5019 12.465 27.0349 13.4168 27.882L13.6271 27.9776L13.8094 28.0474H13.8116ZM15.1954 29.1488C14.0501 28.8821 15.4665 28.6852 15.1954 29.1488V29.1488ZM10.6403 26.3678C11.295 26.8706 13.2829 26.4319 11.6438 26.0685C10.899 25.6703 9.216 25.3991 10.3613 26.307L10.6403 26.3678ZM14.2729 28.8596C13.2941 28.6301 14.877 28.6324 14.2729 28.8596V28.8596ZM12.915 28.026C12.042 27.801 13.3369 27.7313 12.915 28.026V28.026ZM11.2984 27.0844C10.4321 26.8245 11.2421 26.8493 11.2984 27.0844V27.0844ZM16.8109 31.3785C17.3689 31.7295 20.0723 32.1514 18.378 31.5236C18.0968 31.5821 15.2426 30.717 16.8086 31.3785H16.8109ZM13.338 29.2106C13.0905 29.3164 13.3189 28.9778 13.338 29.2106V29.2106ZM12.6439 28.8641C11.7585 28.8585 13.329 28.4209 12.6439 28.8641V28.8641ZM15.6904 30.9915C14.8331 30.8407 15.9593 30.5955 15.6904 30.9915V30.9915ZM14.1053 30.1061C13.4246 29.8417 14.544 29.6842 14.1053 30.1061V30.1061ZM13.1783 29.7191C12.8408 29.9272 13.1029 29.3468 13.1783 29.7191V29.7191ZM12.438 29.4491C12.0026 29.2804 12.7406 29.3141 12.438 29.4491V29.4491ZM6.87938 24.5329C6.9255 24.3281 7.128 24.9784 6.87938 24.5329V24.5329ZM10.8068 28.845C12.1703 29.3501 10.8011 27.8865 10.1745 27.9709C9.89888 27.4916 9.11925 27.1879 9.66825 26.9303C8.67825 27.2734 8.63213 25.623 8.16413 25.8581C7.11788 25.5274 7.75688 24.354 6.51038 23.6374C6.39675 22.878 5.27063 22.2199 4.91063 21.0757C4.752 20.4907 3.63825 18.8077 4.32338 20.3726C5.05238 21.9319 5.87363 23.274 6.822 24.5126L6.78375 24.4598C7.39688 25.7861 8.298 26.8875 9.41175 27.72L9.43425 27.7358C9.8415 28.1272 10.233 28.7246 10.8079 28.8461L10.8068 28.845ZM13.4831 30.7373C14.7319 31.3796 16.1809 31.8803 17.7053 32.1637L17.8043 32.1795C19.2701 32.5159 20.9531 32.7083 22.6823 32.7083C23.58 32.7083 24.4665 32.6565 25.3373 32.5553L25.2315 32.5654C24.1211 32.0636 22.9714 32.7623 21.8644 32.2065C21.4706 32.2515 21.0139 32.2763 20.5515 32.2763C19.5626 32.2763 18.6008 32.1604 17.6794 31.941L17.7638 31.9579C15.9289 31.2896 14.4034 30.6011 12.9353 29.8181L13.1366 29.916C11.3411 29.2612 14.0648 30.7564 14.5496 30.879C15.6713 31.5158 13.3166 30.5516 12.9836 30.2873C12.0443 29.7596 11.9239 29.8699 12.8914 30.4054C13.0871 30.5179 13.2795 30.6382 13.482 30.7361L13.4831 30.7373ZM11.2129 29.7529C9.83138 28.8022 8.64788 27.6964 7.6455 26.4398L7.61963 26.4071C5.73413 24.093 4.1985 21.3997 3.15225 18.4748L3.09263 18.2857C2.466 16.3811 2.24888 14.3381 1.44225 12.5077C1.27913 12.2085 1.1835 11.8519 1.1835 11.4727C1.1835 10.3792 1.98338 9.47137 3.02963 9.30375L3.042 9.30262C3.68888 9.18 4.83075 8.56912 3.45375 9.00562C2.21963 9.91125 2.10038 8.18325 3.36488 8.07525C3.915 8.06962 4.35938 7.623 4.35938 7.07175C4.35938 6.90637 4.31888 6.75 4.248 6.61162L4.25025 6.61725C3.32213 6.01312 6.49913 5.34825 4.90163 4.44712C3.23888 2.64937 7.2315 2.30512 6.24713 4.34362C6.012 5.91075 9.036 4.05562 8.33513 5.86575C9.04838 6.7365 11.0059 6.06262 10.9575 7.28437C11.9981 7.35412 12.3536 8.22937 13.329 8.29687C14.3415 8.75362 16.1719 9.1125 16.515 10.251C15.5126 11.0464 13.1918 8.613 13.0804 10.8101C13.1063 14.2695 13.6204 17.5984 14.5564 20.7461L14.4923 20.493C15.246 22.365 16.3148 23.9636 17.6468 25.2979C18.8606 26.6501 20.3198 27.7526 21.96 28.5424L22.0433 28.5784C23.3483 29.1949 24.8648 29.6809 26.451 29.9599L26.5601 29.9756C27.1901 29.493 28.3039 27.702 29.2849 28.4569C29.331 29.3062 27.333 30.2321 29.1904 30.1388C30.2816 29.8103 31.0376 30.9825 31.9365 29.925C32.7634 30.9049 35.3756 29.2984 34.7861 31.3031C33.9908 31.815 32.8298 31.5056 32.0321 32.211C30.7181 31.554 29.6708 32.7983 28.215 32.6408C26.7851 32.9006 25.1393 33.0491 23.4585 33.0491C23.409 33.0491 23.3584 33.0491 23.3089 33.0491H23.3168C20.4503 32.9985 17.7075 32.5496 15.1155 31.7565L15.3259 31.8116C13.7576 31.2818 12.3975 30.5842 11.1634 29.7191L11.2151 29.754L11.2129 29.7529Z" fill="black"/>
</svg>
