<svg width="32" height="29" viewBox="0 0 32 29" fill="none" xmlns="http://www.w3.org/2000/svg">
<g clip-path="url(#clip0_68_3)">
<path d="M16.0094 29.0053L21.8974 11.1936H10.1212L16.0094 29.0053Z" fill="#E24329"/>
<path d="M16.0094 29.0052L10.1213 11.1935H1.8695L16.0094 29.0052Z" fill="#FC6D26"/>
<path d="M1.8695 11.1935L0.0802512 16.6064C0.000695616 16.847 0.000684641 17.1063 0.0802198 17.3469C0.159755 17.5875 0.314753 17.7973 0.523001 17.946L16.0094 29.0053L1.86938 11.1936L1.8695 11.1935Z" fill="#FCA326"/>
<path d="M1.8695 11.1935H10.1212L6.57512 0.465613C6.39262 -0.0864181 5.59812 -0.0862953 5.41575 0.465613L1.8695 11.1935Z" fill="#E24329"/>
<path d="M16.0094 29.0052L21.8974 11.1935H30.1492L16.0094 29.0052Z" fill="#FC6D26"/>
<path d="M30.1493 11.1935L31.9385 16.6064C32.018 16.8471 32.018 17.1063 31.9385 17.3469C31.8589 17.5876 31.7039 17.7973 31.4956 17.946L16.0094 29.0053L30.1493 11.1936V11.1935Z" fill="#FCA326"/>
<path d="M30.1493 11.1935H21.8974L25.4436 0.465613C25.6261 -0.0864181 26.4206 -0.0862953 26.603 0.465613L30.1493 11.1935Z" fill="#E24329"/>
</g>
<defs>
<clipPath id="clip0_68_3">
<rect width="32" height="29" fill="white"/>
</clipPath>
</defs>
</svg>
