<svg width="29" height="36" viewBox="0 0 29 36" fill="none" xmlns="http://www.w3.org/2000/svg">
<path d="M1.11413 33.1024L0.00129342 3.45027C-0.0354593 2.47098 0.715428 1.64103 1.6935 1.57991L26.9147 0.00357862C27.9103 -0.0586441 28.7678 0.697978 28.83 1.69354C28.8324 1.73105 28.8335 1.76862 28.8335 1.80621V34.1175C28.8335 35.115 28.0249 35.9236 27.0274 35.9236C27.0004 35.9236 26.9734 35.923 26.9464 35.9218L2.83797 34.839C1.89904 34.7968 1.14938 34.0416 1.11413 33.1024Z" fill="#FF4785"/>
<mask id="mask0_29_122" style="mask-type:luminance" maskUnits="userSpaceOnUse" x="0" y="0" width="29" height="36">
<path d="M1.11413 33.1024L0.00129342 3.45027C-0.0354593 2.47098 0.715428 1.64103 1.6935 1.57991L26.9147 0.00357862C27.9103 -0.0586441 28.7678 0.697978 28.83 1.69354C28.8324 1.73105 28.8335 1.76862 28.8335 1.80621V34.1175C28.8335 35.115 28.0249 35.9236 27.0274 35.9236C27.0004 35.9236 26.9734 35.923 26.9464 35.9218L2.83797 34.839C1.89904 34.7968 1.14938 34.0416 1.11413 33.1024Z" fill="white"/>
</mask>
<g mask="url(#mask0_29_122)">
<path d="M21.2914 4.41558L21.4637 0.272143L24.9273 0L25.0765 4.27299C25.0817 4.4217 24.9654 4.54646 24.8167 4.55165C24.753 4.55388 24.6906 4.53346 24.6405 4.49403L23.3048 3.44183L21.7234 4.64143C21.6049 4.73136 21.4359 4.70816 21.3459 4.58961C21.3081 4.5397 21.2888 4.47817 21.2914 4.41558ZM16.8617 13.5401C16.8617 14.2428 21.595 13.906 22.2304 13.4124C22.2304 8.62722 19.6628 6.11268 14.961 6.11268C10.2593 6.11268 7.62498 8.66635 7.62498 12.4968C7.62498 19.1683 16.6283 19.296 16.6283 22.935C16.6283 23.9564 16.1281 24.5629 15.0277 24.5629C13.5939 24.5629 13.027 23.8306 13.0937 21.3408C13.0937 20.8007 7.62498 20.6323 7.45825 21.3408C7.03369 27.3745 10.7928 29.1149 15.0944 29.1149C19.2626 29.1149 22.5305 26.8931 22.5305 22.8711C22.5305 15.7209 13.3938 15.9124 13.3938 12.3692C13.3938 10.9327 14.4609 10.7412 15.0944 10.7412C15.7613 10.7412 16.9618 10.8587 16.8617 13.5401Z" fill="white"/>
</g>
</svg>
